<?xml version="1.0" encoding="utf-8"?>
<!-- Generator: Adobe Illustrator 15.0.2, SVG Export Plug-In . SVG Version: 6.00 Build 0)  -->
<!DOCTYPE svg PUBLIC "-//W3C//DTD SVG 1.1//EN" "http://www.w3.org/Graphics/SVG/1.1/DTD/svg11.dtd">
<svg version="1.1" id="Calque_1" xmlns="http://www.w3.org/2000/svg" xmlns:xlink="http://www.w3.org/1999/xlink" x="0px" y="0px"
	 width="200px" height="139px" viewBox="0 0 200 139" enable-background="new 0 0 200 139" xml:space="preserve">
<g>
	<path fill="#FFFBFF" d="M160.397,42.91c-0.13-0.333-0.511-0.504-0.841-0.373l-0.002,0.001c-5.561,2.155-10.768,4.223-16.029,5.981
		c-2.216,0.748-4.422,1.442-6.623,2.111c-0.749-22.841-19.5-41.13-42.523-41.13c-23.507,0-42.564,19.057-42.564,42.564
		c0,0.786,0.029,1.574,0.069,2.348c-1.426-0.683-2.812-1.444-4.106-2.315c-2.184-1.493-4.133-3.338-5.247-5.632
		c-0.568-1.134-0.898-2.387-0.939-3.689c-0.042-1.305,0.191-2.632,0.649-3.946c0.095-0.277-0.019-0.591-0.282-0.745
		c-0.301-0.167-0.684-0.061-0.85,0.24l-0.006,0.012c-0.724,1.297-1.263,2.776-1.454,4.34c-0.205,1.561-0.043,3.197,0.431,4.731
		c0.474,1.537,1.236,2.961,2.155,4.24c0.913,1.281,1.976,2.43,3.115,3.474c2.202,2.042,4.696,3.659,7.253,5.08
		c3.797,19.607,21.056,34.428,41.774,34.428c19.608,0,36.096-13.256,41.044-31.294c4.264-1.955,8.359-4.308,12.17-7.061
		c4.877-3.571,9.335-7.753,12.727-12.765C160.434,43.338,160.472,43.109,160.397,42.91z M88.311,15.558
		c18.737,0,33.915,15.183,33.915,33.914c0,1.772-0.136,3.508-0.388,5.205l-9.826,2.477c-5.295,1.314-10.721,2.415-16.22,2.856
		c-5.491,0.451-11.035,0.555-16.557,0.262c-2.76-0.128-5.514-0.374-8.253-0.73c-2.737-0.349-5.463-0.821-8.14-1.441
		c-2.673-0.614-5.311-1.374-7.854-2.341c-0.378-2.045-0.592-4.143-0.592-6.289C54.395,30.74,69.58,15.558,88.311,15.558z
		 M88.311,83.387c-14.172,0-26.308-8.688-31.375-21.038c1.358,0.607,2.728,1.16,4.121,1.675c11.256,4.103,23.176,5.777,35.084,5.893
		c5.953,0.032,11.962-0.04,17.966-0.682c0.636-0.062,1.29-0.147,1.924-0.234C109.9,77.7,99.771,83.387,88.311,83.387z"/>
	<path fill="#FFFBFF" d="M62.001,101.135v-1.811c0-0.246-0.208-0.469-0.466-0.469H45.133c-0.25,0-0.461,0.223-0.461,0.469v1.811
		c0,0.26,0.211,0.464,0.461,0.464h6.847v18.428c0,0.261,0.204,0.465,0.462,0.465h1.796c0.257,0,0.46-0.204,0.46-0.465v-18.428h6.837
		C61.793,101.599,62.001,101.395,62.001,101.135z"/>
	<path fill="#FFFBFF" d="M68.992,98.894c-0.072-0.168-0.239-0.282-0.427-0.282h-1.289c-0.188,0-0.354,0.114-0.426,0.284
		l-8.155,20.642c-0.044,0.116-0.04,0.252,0.012,0.369c0.052,0.114,0.148,0.198,0.267,0.246l1.704,0.583
		c0.229,0.072,0.493-0.05,0.577-0.275l2.046-5.198h9.245l2.087,5.202c0.073,0.187,0.239,0.301,0.432,0.301
		c0.05,0,0.1-0.01,0.146-0.031l1.684-0.585c0.119-0.046,0.223-0.132,0.275-0.246c0.052-0.113,0.055-0.249,0.009-0.369L68.992,98.894
		z M67.938,103.582l3.541,8.951h-7.098L67.938,103.582z"/>
	<path fill="#FFFBFF" d="M107.166,98.11h-1.717c-0.234,0-0.468,0.142-0.564,0.352l-9.919,21.075l-9.878-21.075
		c-0.101-0.21-0.314-0.352-0.549-0.352h-1.727c-0.302,0-0.561,0.229-0.598,0.524l-3.235,24.726c-0.043,0.339,0.18,0.639,0.503,0.69
		l2.141,0.352c0.163,0.015,0.323-0.013,0.457-0.117s0.217-0.241,0.242-0.414l2.314-17.915l8.81,23.165
		c0.092,0.228,0.314,0.379,0.558,0.379h1.982c0.246,0,0.469-0.151,0.569-0.389l8.776-23.118l2.335,17.878
		c0.009,0.171,0.105,0.308,0.243,0.414c0.117,0.104,0.265,0.136,0.459,0.117l2.119-0.352c0.34-0.052,0.56-0.352,0.511-0.69
		l-3.227-24.726C107.726,98.34,107.464,98.11,107.166,98.11z"/>
	<path fill="#FFFBFF" d="M129.493,117.747h-12.074v-6.687h6.846c0.258,0,0.46-0.204,0.46-0.464V108.8c0-0.26-0.202-0.467-0.46-0.467
		h-6.846v-6.734h11.019c0.259,0,0.461-0.204,0.461-0.464v-1.811c0-0.246-0.202-0.469-0.461-0.469h-13.266
		c-0.259,0-0.465,0.223-0.465,0.469v20.702c0,0.261,0.206,0.465,0.465,0.465h14.321c0.258,0,0.46-0.204,0.46-0.465v-1.816
		C129.953,117.957,129.751,117.747,129.493,117.747z"/>
	<path fill="#FFFBFF" d="M143.482,109.557c-0.833-0.439-1.763-0.852-2.76-1.203c-0.989-0.342-1.982-0.661-2.93-0.947
		c-0.937-0.297-1.807-0.597-2.577-0.929c-0.692-0.272-1.247-0.638-1.653-1.067c-0.347-0.361-0.522-0.773-0.522-1.239
		c0-0.648,0.417-1.256,1.284-1.847c0.96-0.656,2.18-0.987,3.637-0.987c0.702,0,1.382,0.087,2.037,0.22
		c0.63,0.153,1.193,0.346,1.649,0.572c0.481,0.239,0.854,0.453,1.14,0.633c0.279,0.193,0.514,0.371,0.713,0.547l0.272,0.264
		c0.097,0.088,0.208,0.122,0.32,0.122h0.029c0.116-0.01,0.234-0.059,0.324-0.152l1.149-1.363c0.167-0.184,0.149-0.475-0.043-0.635
		l-0.259-0.244c-0.301-0.29-0.65-0.567-1.049-0.809c-0.366-0.253-0.861-0.538-1.452-0.83c-0.628-0.33-1.367-0.571-2.206-0.775
		c-0.84-0.183-1.731-0.274-2.626-0.274c-1.277,0-2.505,0.212-3.625,0.63c-1.16,0.436-2.122,1.089-2.856,1.922
		c-0.767,0.877-1.166,1.903-1.166,3.008c0,0.807,0.209,1.557,0.583,2.208c0.375,0.639,0.886,1.172,1.507,1.616
		c0.58,0.38,1.228,0.743,1.956,1.058c0.709,0.326,1.448,0.595,2.235,0.838l2.253,0.702c0.707,0.224,1.406,0.478,2.058,0.754
		c0.636,0.268,1.191,0.546,1.674,0.862c0.408,0.255,0.737,0.592,0.979,0.965c0.224,0.354,0.329,0.752,0.329,1.2
		c0,0.895-0.512,1.705-1.587,2.429c-1.156,0.803-2.623,1.206-4.34,1.206c-0.826,0-1.623-0.087-2.387-0.277
		c-0.741-0.17-1.399-0.402-1.919-0.69c-0.556-0.288-1.018-0.567-1.359-0.813c-0.331-0.24-0.607-0.481-0.841-0.717l-0.266-0.25
		c-0.185-0.182-0.48-0.182-0.661,0l-1.243,1.247c-0.168,0.169-0.172,0.468-0.01,0.642l0.254,0.268
		c0.259,0.274,0.545,0.539,0.881,0.793c0.324,0.267,0.752,0.566,1.29,0.873c0.518,0.308,1.077,0.593,1.66,0.828
		c0.595,0.24,1.305,0.438,2.105,0.602c0.804,0.146,1.645,0.239,2.495,0.239c1.479,0,2.887-0.264,4.17-0.782
		c1.317-0.512,2.397-1.268,3.204-2.224c0.855-0.998,1.281-2.134,1.281-3.373c0-1.088-0.3-2.047-0.902-2.884
		C145.145,110.691,144.387,110.044,143.482,109.557z"/>
</g>
</svg>
